<?xml version="1.0" encoding="utf-8"?>
<!-- Generator: Adobe Illustrator 16.0.0, SVG Export Plug-In . SVG Version: 6.00 Build 0)  -->
<!DOCTYPE svg PUBLIC "-//W3C//DTD SVG 1.1//EN" "http://www.w3.org/Graphics/SVG/1.1/DTD/svg11.dtd">
<svg version="1.1" id="layer_1" xmlns="http://www.w3.org/2000/svg" xmlns:xlink="http://www.w3.org/1999/xlink" x="0px" y="0px"
	 width="309px" height="100px" viewBox="0 0 309 100" enable-background="new 0 0 309 100" xml:space="preserve">
<g id="background" display="none">
	<rect display="inline" fill="#2E3233" width="309" height="100"/>
</g>
<g id="we_chat" display="none">
	<g display="inline">
		<path fill="#FFFFFF" d="M196.663,36.032c6.076-1.466,13.467-0.102,17.434,5.085c1.687,2.034,2.406,4.627,3.033,7.144
			c-2.669,0.042-5.348,0.042-8.017,0.042c-1.161-5.746-9.052-8.043-13.238-4.11c-2.95,3.212-3.483,7.983-2.873,12.145
			c0.652,3.194,1.941,6.906,5.237,8.229c4.696,1.753,10.246-1.374,10.874-6.433c2.721,0,5.449-0.009,8.178,0.051
			c-0.567,4.865-2.915,9.932-7.678,11.924c-7.391,3.212-17.976,2.254-22.257-5.398c0.68-3.119,1.442-6.365,0.738-9.552
			c-0.398-2.355-1.627-4.432-2.39-6.669C185.688,42.405,190.908,37.236,196.663,36.032L196.663,36.032z"/>
		<path fill="#9DE60B" d="M115.278,36.922c2.923-0.025,5.847-0.025,8.771-0.034c1.737,7.669,2.703,15.517,4.822,23.103
			c2.127-6.289,3.11-12.891,4.917-19.272c0.533-1.932,2.051-3.974,4.271-3.83c2.407-0.288,4.043,1.941,4.535,4.042
			c1.729,6.272,2.864,12.704,4.788,18.934c2.212-7.518,3.425-15.272,5.044-22.934c2.854-0.034,5.703-0.034,8.56-0.008
			c-2.391,9.619-5.094,19.153-7.544,28.755c-0.602,2.391-1.652,5.119-4.212,6.001c-2.898,0.661-5.526-1.644-6.229-4.33
			c-1.804-5.764-3.11-11.679-4.89-17.459c-1.432,5.746-2.898,11.475-4.475,17.179c-0.594,2.551-2.831,5.169-5.703,4.662
			c-2.772-0.314-4.137-3.068-4.746-5.475C120.566,56.474,117.896,46.702,115.278,36.922L115.278,36.922z"/>
		<path fill="#FFFFFF" d="M219.062,36.914c2.62-0.009,5.247-0.009,7.866-0.018c-0.018,2.882-0.043,5.763,0.186,8.628
			c4.213,0.296,8.832-0.899,12.713,1.237c3.348,1.796,5.28,5.593,5.255,9.339c0.052,5.212-0.017,10.424,0.008,15.645
			c-2.551,0.017-5.093,0.025-7.636,0.033c-0.051-5.008,0.06-10.017-0.024-15.025c0.101-1.695-1.103-3.467-2.849-3.662
			c-2.542-0.322-5.11-0.152-7.661-0.102c0.017,6.254,0.009,12.517,0.009,18.781c-2.619-0.008-5.238-0.008-7.856-0.008
			C219.062,60.144,219.08,48.533,219.062,36.914L219.062,36.914z"/>
		<path fill="#FFFFFF" d="M279.32,36.905c2.482,0,4.966,0,7.449,0c-0.008,2.62-0.008,5.229-0.018,7.848c1.992,0,3.983,0,5.984,0.009
			c-0.009,1.932-0.009,3.873-0.009,5.805c-2.018,0-4.025,0-6.044,0c0.154,4.425-0.329,8.899,0.256,13.306
			c1.339,1.653,3.703,1.416,5.593,1.949c-0.025,1.975-0.033,3.95-0.033,5.933c-4.28,0.094-10.128,0.653-12.323-4
			c-1.891-5.483-0.475-11.483-0.898-17.17c-1.915-0.018-3.831-0.026-5.746-0.051c0-1.916-0.009-3.831-0.009-5.737
			c1.933-0.025,3.865-0.042,5.806-0.051C279.32,42.134,279.32,39.524,279.32,36.905L279.32,36.905z"/>
		<path fill="#9DE60B" d="M185.485,60.084c0.136-5.009-0.976-10.662-5.408-13.662c-5.797-3.686-15.076-3.187-18.983,3.042
			c-3.264,5.492-3.44,13.272,0.982,18.213c4.237,4.788,11.747,5.043,17.297,2.645c3.061-1.246,4.747-4.221,5.9-7.136
			c-2.442-0.076-4.882-0.094-7.323-0.034c-2.161,2.567-5.975,3.602-9,1.991c-1.924-0.932-2.313-3.186-2.916-5
			C172.518,60.042,179.001,60.135,185.485,60.084z M165.839,54.855c0.874-2.67,3.077-5.001,6.137-4.518
			c3.017-0.491,5.067,1.941,5.915,4.526C173.874,54.982,169.856,54.974,165.839,54.855z"/>
		<path fill="#FFFFFF" d="M272.243,53.482c-0.152-4.636-4.246-8.297-8.712-8.772c-4.425-0.457-9.433-0.457-13.086,2.476
			c-1.94,1.406-2.559,3.822-3.06,6.034c2.28,0.06,4.561,0.068,6.848,0.051c1.297-3.882,6.374-4.374,9.424-2.373
			c1.153,0.966,1.052,2.593,1.382,3.94c-4.779,0.187-10.034-0.737-14.28,2.017c-4.042,2.374-4.779,8.196-2.432,11.993
			c1.644,2.466,4.856,2.924,7.593,2.916c5.458,0.025,10.916-0.009,16.374,0C272.243,65.661,272.396,59.567,272.243,53.482z
			 M254.701,64.644c-0.356-1.339,0.405-2.56,0.847-3.754c3.033-0.687,6.152-0.78,9.263-0.712c0.017,2.127,0.017,4.247,0.009,6.374
			C261.446,66.339,257.31,67.407,254.701,64.644z"/>
	</g>
</g>
<g id="bubbles">
	<g>
		<path fill="none" stroke="#9BF7B1" stroke-miterlimit="10" d="M67.134,15.912c-9.9-5.575-22.24-6.416-32.894-2.567
			c-6.998,2.522-13.338,7.206-17.252,13.586c-3.549,5.752-4.881,12.928-3.165,19.51c1.717,7.307,6.78,13.429,12.948,17.521
			c-1.16,3.373-2.304,6.745-3.382,10.142c3.899-2.025,7.752-4.137,11.636-6.198c4.684,1.5,9.606,2.219,14.523,2.061
			c-1.281-3.757-1.585-7.803-1.002-11.723c0.932-5.438,3.874-10.416,7.94-14.107c6.846-6.411,16.553-9.12,25.789-8.467
			C80.548,27.204,74.598,20.044,67.134,15.912z M40.595,31.271c-0.688,3.317-5.135,4.917-7.732,2.694
			c-3.008-2.122-2.167-7.393,1.372-8.451C37.698,24.176,41.638,27.696,40.595,31.271z M64.643,30.309
			c0.03,3.818-5.054,6.198-7.915,3.605c-2.967-2.122-2.126-7.292,1.357-8.365C61.2,24.323,64.886,26.951,64.643,30.309z"/>
		<path fill="none" stroke="#9BF7B1" stroke-miterlimit="10" d="M106.525,53.475c-2.416-5.474-6.978-9.809-12.27-12.492
			c-9.343-4.74-20.969-4.704-30.281,0.111c-6.477,3.327-11.88,9.282-13.419,16.528c-1.266,5.332-0.127,11.074,2.699,15.728
			c4.213,6.983,11.819,11.439,19.733,12.872c5.732,1.165,11.657,0.482,17.222-1.139c3.332,1.302,6.319,3.398,9.555,4.948
			c-0.83-2.795-1.716-5.581-2.673-8.335c3.62-2.587,6.922-5.798,8.907-9.839C108.951,66.231,109.127,59.263,106.525,53.475z
			 M74.006,55.567c-0.82,2.587-4.593,3.367-6.406,1.392c-2.005-1.818-1.226-5.631,1.402-6.441
			C71.925,49.287,75.287,52.649,74.006,55.567z M93.041,55.926c-0.998,2.33-4.487,2.866-6.208,1.064
			c-0.835-0.75-1.038-1.889-1.372-2.896c0.446-1.813,1.656-3.702,3.716-3.783C92.028,49.92,94.529,53.379,93.041,55.926z"/>
	</g>
</g>
</svg>
