<?xml version="1.0" encoding="utf-8"?>
<!-- Generator: Adobe Illustrator 16.0.0, SVG Export Plug-In . SVG Version: 6.00 Build 0)  -->
<!DOCTYPE svg PUBLIC "-//W3C//DTD SVG 1.1//EN" "http://www.w3.org/Graphics/SVG/1.1/DTD/svg11.dtd">
<svg version="1.1" id="layer_1" xmlns="http://www.w3.org/2000/svg" xmlns:xlink="http://www.w3.org/1999/xlink" x="0px" y="0px"
	 width="96.274px" height="80.49px" viewBox="12.579 10.479 96.274 80.49" enable-background="new 12.579 10.479 96.274 80.49"
	 xml:space="preserve">
<g id="bubbles">
	<g>
		<path fill="none" stroke="#9BF7B1" stroke-miterlimit="10" d="M67.134,15.912c-9.9-5.575-22.24-6.416-32.894-2.567
			c-6.998,2.522-13.338,7.206-17.252,13.586c-3.549,5.752-4.881,12.928-3.165,19.51c1.717,7.307,6.78,13.429,12.948,17.521
			c-1.16,3.373-2.304,6.745-3.382,10.142c3.899-2.024,7.752-4.137,11.636-6.197c4.684,1.5,9.606,2.219,14.523,2.061
			c-1.281-3.757-1.585-7.803-1.002-11.723c0.932-5.438,3.874-10.416,7.94-14.107c6.846-6.411,16.553-9.12,25.789-8.467
			C80.548,27.204,74.598,20.044,67.134,15.912z M40.595,31.271c-0.688,3.317-5.135,4.917-7.732,2.694
			c-3.008-2.122-2.167-7.393,1.372-8.451C37.698,24.176,41.638,27.696,40.595,31.271z M64.643,30.309
			c0.03,3.818-5.054,6.198-7.915,3.605c-2.967-2.122-2.126-7.292,1.357-8.365C61.2,24.323,64.886,26.951,64.643,30.309z"/>
		<path fill="none" stroke="#9BF7B1" stroke-miterlimit="10" d="M106.525,53.475c-2.416-5.474-6.978-9.809-12.27-12.492
			c-9.343-4.74-20.969-4.704-30.281,0.111c-6.477,3.327-11.88,9.282-13.419,16.528c-1.266,5.332-0.127,11.073,2.699,15.728
			c4.213,6.983,11.819,11.439,19.733,12.873c5.732,1.164,11.657,0.481,17.222-1.14c3.332,1.302,6.319,3.397,9.555,4.948
			c-0.83-2.795-1.716-5.581-2.673-8.336c3.62-2.586,6.922-5.797,8.907-9.838C108.951,66.23,109.127,59.264,106.525,53.475z
			 M74.006,55.566c-0.82,2.588-4.593,3.367-6.406,1.393c-2.005-1.818-1.226-5.631,1.402-6.441
			C71.925,49.287,75.287,52.648,74.006,55.566z M93.041,55.926c-0.998,2.33-4.487,2.866-6.208,1.064
			c-0.835-0.75-1.038-1.889-1.372-2.896c0.446-1.812,1.656-3.702,3.716-3.783C92.028,49.92,94.529,53.379,93.041,55.926z"/>
	</g>
</g>
</svg>
